<mxfile host="Electron" agent="Mozilla/5.0 (Windows NT 10.0; Win64; x64) AppleWebKit/537.36 (KHTML, like Gecko) draw.io/27.0.9 Chrome/134.0.6998.205 Electron/35.4.0 Safari/537.36" version="27.0.9">
  <diagram name="第 1 页" id="ZAfOZYs4lt74V5IowMuR">
    <mxGraphModel dx="574" dy="1516" grid="1" gridSize="10" guides="1" tooltips="1" connect="1" arrows="1" fold="1" page="1" pageScale="1" pageWidth="827" pageHeight="1169" math="0" shadow="0">
      <root>
        <mxCell id="0" />
        <mxCell id="1" parent="0" />
        <mxCell id="5kpPpqcgIR7XSpEVsbop-2" value="&lt;h1 style=&quot;margin-top: 0px;&quot;&gt;AI模块&lt;/h1&gt;&lt;p&gt;1.双层Navmesh&lt;/p&gt;&lt;p&gt;2.多模式动画Locomotion切换&lt;/p&gt;&lt;p&gt;3.行为树控制&lt;/p&gt;" style="text;html=1;whiteSpace=wrap;overflow=hidden;rounded=0;" parent="1" vertex="1">
          <mxGeometry x="40" y="20" width="180" height="120" as="geometry" />
        </mxCell>
        <mxCell id="5kpPpqcgIR7XSpEVsbop-3" value="&lt;h1 style=&quot;margin-top: 0px;&quot;&gt;战斗---投射物&lt;/h1&gt;&lt;p&gt;1.开始-飞行-命中&lt;/p&gt;&lt;p&gt;2.飞行轨迹自定义&lt;/p&gt;&lt;p&gt;3.角色属性传递&lt;/p&gt;&lt;p&gt;4.Netcode同步&lt;/p&gt;" style="text;html=1;whiteSpace=wrap;overflow=hidden;rounded=0;" parent="1" vertex="1">
          <mxGeometry x="40" y="150" width="180" height="150" as="geometry" />
        </mxCell>
        <mxCell id="5kpPpqcgIR7XSpEVsbop-4" value="&lt;h1 style=&quot;margin-top: 0px;&quot;&gt;动作---Animancer&lt;/h1&gt;&lt;p&gt;1.基本调用&lt;/p&gt;&lt;p&gt;2.事件回调&lt;/p&gt;&lt;p&gt;3.分层动画&lt;/p&gt;&lt;p&gt;4.IK&lt;/p&gt;" style="text;html=1;whiteSpace=wrap;overflow=hidden;rounded=0;" parent="1" vertex="1">
          <mxGeometry x="40" y="300" width="240" height="160" as="geometry" />
        </mxCell>
        <mxCell id="Hjr9YT_woKwV_bVrC-a_-1" value="&lt;h1 style=&quot;margin-top: 0px;&quot;&gt;动作---Animator&lt;/h1&gt;&lt;p&gt;1.连线条件流转&lt;/p&gt;&lt;p&gt;2.&lt;/p&gt;" style="text;html=1;whiteSpace=wrap;overflow=hidden;rounded=0;" parent="1" vertex="1">
          <mxGeometry x="40" y="460" width="240" height="160" as="geometry" />
        </mxCell>
        <mxCell id="HgiidpJ8ot3Ss4uMxfzM-5" style="edgeStyle=orthogonalEdgeStyle;rounded=0;orthogonalLoop=1;jettySize=auto;html=1;" edge="1" parent="1" source="HgiidpJ8ot3Ss4uMxfzM-1" target="HgiidpJ8ot3Ss4uMxfzM-2">
          <mxGeometry relative="1" as="geometry" />
        </mxCell>
        <mxCell id="HgiidpJ8ot3Ss4uMxfzM-1" value="&lt;h1 style=&quot;margin-top: 0px;&quot;&gt;移动端操作布局&lt;/h1&gt;&lt;p&gt;1.收刀自由状&lt;span style=&quot;background-color: transparent; color: light-dark(rgb(0, 0, 0), rgb(255, 255, 255));&quot;&gt;态&lt;/span&gt;&lt;/p&gt;&lt;p&gt;2.拔刀战斗状态&lt;/p&gt;" style="text;html=1;whiteSpace=wrap;overflow=hidden;rounded=0;strokeColor=default;" vertex="1" parent="1">
          <mxGeometry x="390" y="20" width="180" height="120" as="geometry" />
        </mxCell>
        <mxCell id="HgiidpJ8ot3Ss4uMxfzM-2" value="" style="swimlane;startSize=0;" vertex="1" parent="1">
          <mxGeometry x="610" y="-90" width="270" height="150" as="geometry" />
        </mxCell>
        <mxCell id="HgiidpJ8ot3Ss4uMxfzM-7" value="移动" style="ellipse;whiteSpace=wrap;html=1;aspect=fixed;" vertex="1" parent="HgiidpJ8ot3Ss4uMxfzM-2">
          <mxGeometry x="10" y="90" width="50" height="50" as="geometry" />
        </mxCell>
        <mxCell id="HgiidpJ8ot3Ss4uMxfzM-10" value="&lt;font style=&quot;font-size: 6px;&quot;&gt;锁敌&lt;/font&gt;" style="ellipse;whiteSpace=wrap;html=1;aspect=fixed;" vertex="1" parent="HgiidpJ8ot3Ss4uMxfzM-2">
          <mxGeometry x="70" y="120" width="20" height="20" as="geometry" />
        </mxCell>
        <mxCell id="HgiidpJ8ot3Ss4uMxfzM-11" value="&lt;font style=&quot;font-size: 6px;&quot;&gt;Y&lt;/font&gt;" style="ellipse;whiteSpace=wrap;html=1;aspect=fixed;" vertex="1" parent="HgiidpJ8ot3Ss4uMxfzM-2">
          <mxGeometry x="230" y="110" width="30" height="30" as="geometry" />
        </mxCell>
        <mxCell id="HgiidpJ8ot3Ss4uMxfzM-14" value="&lt;font style=&quot;font-size: 6px;&quot;&gt;翻滚&lt;/font&gt;" style="ellipse;whiteSpace=wrap;html=1;aspect=fixed;" vertex="1" parent="HgiidpJ8ot3Ss4uMxfzM-2">
          <mxGeometry x="197" y="120" width="20" height="20" as="geometry" />
        </mxCell>
        <mxCell id="HgiidpJ8ot3Ss4uMxfzM-3" value="" style="swimlane;startSize=0;" vertex="1" parent="1">
          <mxGeometry x="610" y="100" width="270" height="150" as="geometry" />
        </mxCell>
        <mxCell id="HgiidpJ8ot3Ss4uMxfzM-13" value="拔刀" style="text;html=1;align=center;verticalAlign=middle;resizable=0;points=[];autosize=1;strokeColor=none;fillColor=none;" vertex="1" parent="HgiidpJ8ot3Ss4uMxfzM-3">
          <mxGeometry x="105" width="50" height="30" as="geometry" />
        </mxCell>
        <mxCell id="HgiidpJ8ot3Ss4uMxfzM-15" value="移动" style="ellipse;whiteSpace=wrap;html=1;aspect=fixed;" vertex="1" parent="HgiidpJ8ot3Ss4uMxfzM-3">
          <mxGeometry x="10" y="90" width="50" height="50" as="geometry" />
        </mxCell>
        <mxCell id="HgiidpJ8ot3Ss4uMxfzM-16" value="&lt;font style=&quot;font-size: 6px;&quot;&gt;锁敌&lt;/font&gt;" style="ellipse;whiteSpace=wrap;html=1;aspect=fixed;" vertex="1" parent="HgiidpJ8ot3Ss4uMxfzM-3">
          <mxGeometry x="70" y="120" width="20" height="20" as="geometry" />
        </mxCell>
        <mxCell id="HgiidpJ8ot3Ss4uMxfzM-17" value="&lt;font style=&quot;font-size: 6px;&quot;&gt;翻滚&lt;/font&gt;" style="ellipse;whiteSpace=wrap;html=1;aspect=fixed;" vertex="1" parent="HgiidpJ8ot3Ss4uMxfzM-3">
          <mxGeometry x="170" y="120" width="20" height="20" as="geometry" />
        </mxCell>
        <mxCell id="HgiidpJ8ot3Ss4uMxfzM-18" value="&lt;span style=&quot;font-size: 6px;&quot;&gt;X&lt;/span&gt;" style="ellipse;whiteSpace=wrap;html=1;aspect=fixed;" vertex="1" parent="HgiidpJ8ot3Ss4uMxfzM-3">
          <mxGeometry x="197" y="120" width="20" height="20" as="geometry" />
        </mxCell>
        <mxCell id="HgiidpJ8ot3Ss4uMxfzM-19" value="&lt;font style=&quot;font-size: 6px;&quot;&gt;Y&lt;/font&gt;" style="ellipse;whiteSpace=wrap;html=1;aspect=fixed;" vertex="1" parent="HgiidpJ8ot3Ss4uMxfzM-3">
          <mxGeometry x="230" y="110" width="30" height="30" as="geometry" />
        </mxCell>
        <mxCell id="HgiidpJ8ot3Ss4uMxfzM-20" value="&lt;font style=&quot;font-size: 6px;&quot;&gt;X+Y&lt;/font&gt;" style="ellipse;whiteSpace=wrap;html=1;aspect=fixed;" vertex="1" parent="HgiidpJ8ot3Ss4uMxfzM-3">
          <mxGeometry x="210" y="90" width="20" height="20" as="geometry" />
        </mxCell>
        <mxCell id="HgiidpJ8ot3Ss4uMxfzM-21" value="&lt;font style=&quot;font-size: 6px;&quot;&gt;Rt&lt;/font&gt;" style="ellipse;whiteSpace=wrap;html=1;aspect=fixed;" vertex="1" parent="HgiidpJ8ot3Ss4uMxfzM-3">
          <mxGeometry x="240" y="80" width="20" height="20" as="geometry" />
        </mxCell>
        <mxCell id="HgiidpJ8ot3Ss4uMxfzM-22" value="&lt;span style=&quot;font-size: 6px;&quot;&gt;收刀&lt;/span&gt;" style="ellipse;whiteSpace=wrap;html=1;aspect=fixed;" vertex="1" parent="HgiidpJ8ot3Ss4uMxfzM-3">
          <mxGeometry x="180" y="90" width="20" height="20" as="geometry" />
        </mxCell>
        <mxCell id="HgiidpJ8ot3Ss4uMxfzM-6" style="edgeStyle=orthogonalEdgeStyle;rounded=0;orthogonalLoop=1;jettySize=auto;html=1;entryX=0.005;entryY=0.648;entryDx=0;entryDy=0;entryPerimeter=0;" edge="1" parent="1" source="HgiidpJ8ot3Ss4uMxfzM-1" target="HgiidpJ8ot3Ss4uMxfzM-3">
          <mxGeometry relative="1" as="geometry" />
        </mxCell>
        <mxCell id="HgiidpJ8ot3Ss4uMxfzM-12" value="收刀" style="text;html=1;align=center;verticalAlign=middle;resizable=0;points=[];autosize=1;strokeColor=none;fillColor=none;" vertex="1" parent="1">
          <mxGeometry x="715" y="-92" width="50" height="30" as="geometry" />
        </mxCell>
      </root>
    </mxGraphModel>
  </diagram>
</mxfile>
